<svg class="svg-icon" style="width: 1em; height: 1em;vertical-align: middle;fill: currentColor;overflow: hidden;" viewBox="0 0 1024 1024" version="1.1" xmlns="http://www.w3.org/2000/svg"><path d="M656.1 387.9c10.6-44.8-28.4-67.1-38.4-72.3 1.1-6.3 5.2-32.1-25.9-52.7-16.4-60.7-77.8-69.9-80.6-70.3-7-0.9-25.5-3.1-31 9.6-2.3 5.4 0 10 2 16 2.5 7.4 10.3 35.9-12.1 42.8-5.8 1.4-51.5 15.7-48.8 39.3-39.3 7.6-35.5 42.1-28.3 51.6-17.5 4.7-54.2 25.5-29.4 70.1-14.7 10.2-39 43.7 1.4 88.8l123.6 300.3c4.3 9.3 9.5 20.8 26 20.8s24-8.5 29.2-19.9l112.5-300c17.7-14.6 22.2-44 13.8-59.3 23.2-26.4 8.3-59.7-14-64.8z m-84.8-117.7c-15.2 29.2-41.6 38.2-66.3 39.1 24-8.7 35.9-31.9 32.7-53.9-2.2-15.1-11.3-28.1-31.7-41.7 6.3 0.2 53 8 65.3 56.5zM475.2 282c12.4-3 32.7-12.5 32-39.4 19.6 16.7 2.5 38 2.6 38-22.2 26.7-63.2 17.1-65.7 17.1 4.8-6.8 20.7-13.2 31.1-15.7z m-37 37.2c15.6 6.2 37.9 11.7 61.3 11.7 32.3 0 66.4-10.7 87.2-44.1 13.8 10.2 12.6 29.6 4.6 38.1v0.1c-13.4 14.7-52.3 43.7-142.3 27.8-9.2-2.4-21.5-4.1-34.2-3.8-13.8-22.6 5.3-34.4 23.4-29.8z m6.1 54.5C549.8 392.4 595.2 354 610.2 336c30.1 18.1 27.6 41.9 23.3 52.5-14.2 35.1-49.8 30.8-106.8 20.9-20.2-3.5-41.1-7.2-61.9-8.2-4.7-0.2-52.5-2.6-81.8 11.1-3.6-4.4-8.3-11.1-7-19.5 6.2-33.6 67-19.4 68.3-19.1z m66.4 165.9c-74.9 0-127.8-25.7-130.7-49.6 5.6-9.5 28.3-20.9 81.5-4 3.4 1 83.9 25.3 146.2 5.8 17.4-5.2 32.8-12.9 45-22.2 1.3 37.4-73.2 70-142 70z m-14.4 238.6l-10.2-25.3 70.7-195.3c7.2-1 14.1-2.4 20.8-3.9l-81.3 224.5z m-30.7-75.8l51.2-141.5c6.8-0.1 13.5-0.3 19.9-0.8L476 728l-10.4-25.6z m-20.7-51.1l33.2-91.8c6.3 0.6 12.9 1 19.5 1.3l-42.2 116.6-10.5-26.1z m-20.2-50.1l17.2-47.6c5.8 1.3 11.7 2.5 17.9 3.5l-25 69.2-10.1-25.1z m-25.2-62.3c7.5 3.8 15.9 7.2 25 10.1l-9.9 27.3-15.1-37.4zM534.1 779l-3.5 9.3c-4.5 12.2-6.7 17.6-15 17.8-3.3 0-7.5-3.3-7.7-7.1l91-251.4c9-3.1 17.4-6.6 25-10.8L534.1 779z m125.8-353.5c-3.7 17.8-27.7 36.6-58.5 45.9-56 17.5-132.7-5.5-133.4-5.7-62.7-20-90.3-4.9-101.8 7.4-6.7-14.4 0.9-26.2 7.2-31.5 0.3-0.2 26.6-22.4 90.2-19 19.5 1 39.7 4.5 59.3 7.9 49.3 8.6 100.1 17.3 124.7-22.6 9.7 1 13.9 9.9 12.3 17.6z" fill="#333333" /></svg>